<svg width="501" height="110" viewBox="0 0 501 110" fill="none" xmlns="http://www.w3.org/2000/svg">
<path fill-rule="evenodd" clip-rule="evenodd" d="M80.2753 41.5669C78.9903 41.6333 76.6156 41.6074 75.4116 41.6701C75.3527 40.6491 75.6215 39.2632 74.8225 38.0432C71.4721 35.3304 70.5995 34.6485 67.157 32.0573C64.2484 29.8642 60.4561 28.4598 61.4281 23.5723C61.5422 23.001 60.2168 21.9911 59.3994 21.4161C55.0843 18.3973 53.4017 14.1143 54.8487 9.56587C56.1042 5.62195 60.1579 2.71377 64.3257 2.77274C68.6997 2.8354 72.5729 5.87996 73.7474 10.1851C74.9661 14.6377 73.1105 18.8396 68.464 21.6077C65.7137 23.2443 65.8279 24.9324 68.1253 26.6648C70.8793 28.7436 73.648 30.8667 76.6524 32.5327C80.047 34.4126 80.279 38.0837 80.279 41.5706L80.2753 41.5669ZM64.6975 7.94038C61.2771 7.98093 59.3442 9.61747 59.2779 12.6399C59.2116 15.6845 61.174 17.4648 64.2115 17.4979C67.0502 17.5274 68.8874 16.0051 69.031 13.0269C69.182 9.86074 67.4147 8.28317 64.6975 7.94407V7.94038Z" fill="url(#paint0_linear_2811_14)"/>
<path fill-rule="evenodd" clip-rule="evenodd" d="M103.467 32.5291C106.471 30.863 109.24 28.74 111.994 26.6611C114.292 24.9287 114.406 23.2406 111.655 21.604C107.009 18.8359 105.153 14.634 106.372 10.1814C107.546 5.87627 111.42 2.83171 115.794 2.76905C119.958 2.71008 124.015 5.61826 125.271 9.56218C126.718 14.1143 125.035 18.3936 120.72 21.4124C119.899 21.9874 118.577 22.9973 118.691 23.5686C119.66 28.4598 115.867 29.8605 112.962 32.0536C109.524 34.6448 108.647 35.3267 105.297 38.0395C104.494 39.2595 104.767 40.6417 104.708 41.6664C103.504 41.6038 101.129 41.6296 99.8441 41.5632C99.8441 38.0764 100.076 34.4052 103.471 32.5254L103.467 32.5291ZM111.085 13.0232C111.225 16.0015 113.066 17.5237 115.904 17.4942C118.942 17.4611 120.904 15.6808 120.838 12.6362C120.772 9.61378 118.839 7.97724 115.418 7.93669C112.701 8.2758 110.934 9.85337 111.085 13.0196V13.0232Z" fill="url(#paint1_linear_2811_14)"/>
<path fill-rule="evenodd" clip-rule="evenodd" d="M111.567 51.3419C110.19 48.36 111.041 46.4249 113.769 44.8252C117.093 42.8717 120.149 40.4611 123.47 38.5002C126.14 36.919 127.738 35.3746 127.314 31.7329C126.773 27.0444 130.37 23.0268 134.748 22.227C140.09 21.2502 144.571 23.6755 146.382 28.5225C148.017 32.8977 146.036 37.7114 141.975 40.1405C139.449 41.6517 136.287 41.648 132.863 40.7191C131.784 40.428 130.657 39.7203 129.549 40.3837C125.532 42.7906 121.648 45.4371 117.852 48.1831C116.987 48.8097 116.549 49.499 116.416 51.3419H111.567ZM136.622 36.7126C139.622 36.731 141.997 35.0097 141.773 32.1973C141.622 30.3175 139.505 27.6858 137.693 27.0629C134.921 26.1082 132.579 28.1133 132.204 31.1432C131.828 34.1582 133.5 36.0675 136.625 36.7089L136.622 36.7126Z" fill="url(#paint2_linear_2811_14)"/>
<path fill-rule="evenodd" clip-rule="evenodd" d="M87.5432 28.3787C87.5432 26.7164 87.499 25.4374 87.5727 23.3954C87.6537 21.206 86.9725 20.0007 85.0101 18.8728C80.9012 16.5101 79.3364 11.8732 80.6619 7.39487C81.8364 3.42515 85.8385 0.531709 90.091 0.57594C94.3656 0.620171 98.1652 3.43252 99.4686 7.52019C100.838 11.8143 98.9495 16.2079 95.0578 19.0866C93.7949 20.0228 92.7235 20.889 92.5946 23.5428C92.429 26.9818 92.5284 30.2659 92.3848 33.9113C92.3443 34.9618 92.6867 36.7826 90.1315 36.7752C87.742 36.7679 87.4475 35.6621 87.5101 33.7749C87.5653 31.9725 87.5211 30.1738 87.5211 28.3714H87.5395L87.5432 28.3787ZM94.9473 10.1962C94.5644 7.50545 93.088 5.61826 89.9069 5.62932C86.9283 5.64038 85.1795 7.48333 85.0469 10.222C84.9033 13.2518 86.8326 15.1942 89.8664 15.3306C92.9996 15.4744 94.6049 13.5577 94.9473 10.1925V10.1962Z" fill="url(#paint3_linear_2811_14)"/>
<path fill-rule="evenodd" clip-rule="evenodd" d="M80.2569 59.8195C80.2569 58.2899 80.279 58.0245 80.279 55.9235H75.4153V59.8195H80.2569Z" fill="url(#paint4_linear_2811_14)"/>
<path fill-rule="evenodd" clip-rule="evenodd" d="M92.2743 59.8195C92.2743 56.7049 92.2964 56.1594 92.2964 51.8874H87.4327V59.8195H92.2743Z" fill="url(#paint5_linear_2811_14)"/>
<path fill-rule="evenodd" clip-rule="evenodd" d="M80.2569 50.0113C80.2569 48.172 80.279 47.8514 80.279 45.3265H75.4153V50.0113H80.2569Z" fill="url(#paint6_linear_2811_14)"/>
<path fill-rule="evenodd" clip-rule="evenodd" d="M104.487 50.0113C104.487 48.172 104.509 47.8514 104.509 45.3265H99.6453V50.0113H104.487Z" fill="url(#paint7_linear_2811_14)"/>
<path fill-rule="evenodd" clip-rule="evenodd" d="M104.487 59.8195C104.487 57.9803 104.509 57.6596 104.509 55.1347H99.6453V59.8195H104.487Z" fill="url(#paint8_linear_2811_14)"/>
<path fill-rule="evenodd" clip-rule="evenodd" d="M116.39 59.8195C116.39 57.9803 116.412 57.6596 116.412 55.1347H111.549V59.8195H116.39Z" fill="url(#paint9_linear_2811_14)"/>
<path fill-rule="evenodd" clip-rule="evenodd" d="M92.2743 45.7578C92.2743 43.9185 92.2964 43.5978 92.2964 41.073H87.4327V45.7578H92.2743Z" fill="url(#paint10_linear_2811_14)"/>
<path fill-rule="evenodd" clip-rule="evenodd" d="M64.1563 59.8195H68.7475C68.7549 58.8833 68.7475 58.4778 68.8138 57.4826C69.3698 49.053 66.6747 43.4504 59.797 39.3185C57.3486 37.8441 56.4098 36.0602 57.2124 32.8645C58.2728 28.6441 55.6108 24.4569 51.7486 22.6729C47.7501 20.83 43.0006 21.8547 40.0294 25.1978C37.2901 28.2792 36.8446 32.6175 38.877 36.3919C40.8799 40.1147 45.4159 42.6358 49.3701 41.1873C52.809 39.9267 54.8119 41.0988 56.9989 43.2477C58.4753 44.7036 60.3346 45.8168 61.6159 47.4091C62.7094 48.7655 63.6261 50.5273 63.8949 52.2229C64.2042 54.1801 64.2299 56.082 64.2336 58.8206M47.3893 36.4582C44.3666 36.4582 42.8202 34.5305 42.7097 31.7845C42.5846 28.7068 44.5617 27.1329 47.4041 26.6795C50.5041 27.026 52.4113 28.493 52.334 31.6776C52.2604 34.7959 50.4857 36.4546 47.3893 36.4546V36.4582Z" fill="url(#paint11_linear_2811_14)"/>
<path fill-rule="evenodd" clip-rule="evenodd" d="M19.6064 68.5441L24.9082 61.821C24.9082 61.821 70.1577 52.3666 87.4769 85.2302C87.4769 85.2302 64.1747 58.1572 19.6027 68.5441H19.6064Z" fill="url(#paint12_linear_2811_14)"/>
<path fill-rule="evenodd" clip-rule="evenodd" d="M3.60519 81.6364L7.48582 74.5595C7.48582 74.5595 66.6194 57.7628 87.4769 95.8456C87.4769 95.8456 60.9642 63.6639 3.60519 81.6401V81.6364Z" fill="url(#paint13_linear_2811_14)"/>
<path fill-rule="evenodd" clip-rule="evenodd" d="M1.91524 88.0056C1.91524 88.0056 58.1402 71.4744 81.4719 95.8419C81.4719 95.8419 81.667 103.575 89.524 103.575C97.381 103.575 97.7345 95.8419 97.7345 95.8419C97.7345 95.8419 114.829 72.7865 177.273 87.6518C177.273 87.6518 179.795 93.0295 174.799 93.0517C174.799 93.0517 128.135 79.5133 102.329 98.2672C102.329 98.2672 101.818 109.236 89.524 109.236C77.2304 109.236 76.877 100.693 76.877 100.693C76.877 100.693 63.9649 78.0942 3.60887 93.3134C3.60887 93.3134 -2.69808 92.2518 1.91524 88.0056Z" fill="url(#paint14_linear_2811_14)"/>
<path fill-rule="evenodd" clip-rule="evenodd" d="M159.471 68.5441L154.169 61.821C154.169 61.821 108.92 52.3666 91.6006 85.2302C91.6006 85.2302 114.903 58.1572 159.475 68.5441H159.471Z" fill="url(#paint15_linear_2811_14)"/>
<path fill-rule="evenodd" clip-rule="evenodd" d="M175.472 81.6364L171.592 74.5595C171.592 74.5595 112.458 57.7628 91.6006 95.8456C91.6006 95.8456 118.113 63.6639 175.472 81.6401V81.6364Z" fill="url(#paint16_linear_2811_14)"/>
<path d="M206.54 23.0601H228.373C231.885 23.0601 234.75 23.5684 236.968 24.585C239.185 25.6015 240.895 26.8722 242.096 28.397C243.298 29.9218 244.106 31.5853 244.522 33.3873C244.984 35.1894 245.215 36.8528 245.215 38.3776C245.215 39.9024 244.984 41.5659 244.522 43.3679C244.106 45.1238 243.298 46.7641 242.096 48.2889C240.895 49.8138 239.185 51.0844 236.968 52.101C234.75 53.0713 231.885 53.5565 228.373 53.5565H215.204V72.5474H206.54V23.0601ZM215.204 46.4869H227.888C228.858 46.4869 229.852 46.3483 230.868 46.071C231.885 45.7938 232.809 45.3548 233.641 44.7541C234.519 44.1072 235.212 43.2755 235.72 42.259C236.274 41.1962 236.552 39.8793 236.552 38.3083C236.552 36.6911 236.321 35.3511 235.859 34.2883C235.396 33.2256 234.773 32.3939 233.987 31.7932C233.202 31.1463 232.301 30.7073 231.284 30.4763C230.268 30.2453 229.182 30.1298 228.027 30.1298H215.204V46.4869Z" fill="black"/>
<path d="M251.661 36.7142H259.077V43.6452H259.215C259.446 42.6748 259.885 41.7276 260.532 40.8035C261.225 39.8793 262.034 39.0476 262.958 38.3083C263.929 37.5228 264.991 36.899 266.146 36.437C267.302 35.9749 268.48 35.7439 269.681 35.7439C270.605 35.7439 271.229 35.767 271.553 35.8132C271.922 35.8594 272.292 35.9056 272.662 35.9518V43.5759C272.107 43.4835 271.529 43.4141 270.929 43.3679C270.374 43.2755 269.82 43.2293 269.265 43.2293C267.925 43.2293 266.655 43.5066 265.453 44.061C264.298 44.5693 263.282 45.3548 262.404 46.4176C261.526 47.4341 260.833 48.7048 260.324 50.2296C259.816 51.7544 259.562 53.5103 259.562 55.4972V72.5474H251.661V36.7142Z" fill="black"/>
<path d="M306.039 64.5768C306.039 65.5471 306.154 66.2402 306.385 66.6561C306.662 67.0719 307.171 67.2799 307.91 67.2799C308.141 67.2799 308.418 67.2799 308.742 67.2799C309.065 67.2799 309.435 67.2336 309.851 67.1412V72.6167C309.573 72.7091 309.204 72.8015 308.742 72.894C308.326 73.0326 307.887 73.1481 307.425 73.2405C306.963 73.3329 306.501 73.4022 306.039 73.4484C305.577 73.4946 305.184 73.5177 304.86 73.5177C303.243 73.5177 301.903 73.1943 300.84 72.5474C299.778 71.9005 299.084 70.7684 298.761 69.1512C297.19 70.676 295.249 71.785 292.939 72.4781C290.675 73.1712 288.48 73.5177 286.355 73.5177C284.737 73.5177 283.189 73.2867 281.711 72.8246C280.232 72.4088 278.915 71.785 277.76 70.9533C276.651 70.0753 275.75 68.9895 275.057 67.6957C274.41 66.3557 274.087 64.8078 274.087 63.0519C274.087 60.834 274.479 59.032 275.265 57.6458C276.097 56.2596 277.159 55.1737 278.453 54.3882C279.793 53.6027 281.272 53.0482 282.889 52.7248C284.553 52.3551 286.216 52.0779 287.879 51.8931C289.312 51.6158 290.675 51.431 291.969 51.3386C293.262 51.2 294.395 50.992 295.365 50.7148C296.381 50.4375 297.167 50.0217 297.721 49.4672C298.322 48.8665 298.622 47.9886 298.622 46.8334C298.622 45.8169 298.368 44.9852 297.86 44.3383C297.398 43.6914 296.797 43.2062 296.058 42.8828C295.365 42.5131 294.579 42.2821 293.701 42.1897C292.823 42.0511 291.992 41.9817 291.206 41.9817C288.988 41.9817 287.163 42.4438 285.731 43.3679C284.298 44.2921 283.49 45.7245 283.305 47.6652H275.404C275.542 45.3548 276.097 43.4373 277.067 41.9124C278.037 40.3876 279.262 39.1631 280.74 38.239C282.265 37.3149 283.975 36.668 285.869 36.2983C287.764 35.9287 289.705 35.7439 291.691 35.7439C293.447 35.7439 295.18 35.9287 296.89 36.2983C298.599 36.668 300.124 37.2687 301.464 38.1004C302.85 38.9321 303.959 40.018 304.791 41.358C305.623 42.6517 306.039 44.2459 306.039 46.1403V64.5768ZM298.137 54.5961C296.936 55.3817 295.457 55.8668 293.701 56.0517C291.946 56.1903 290.19 56.4213 288.434 56.7447C287.602 56.8834 286.794 57.0913 286.008 57.3685C285.223 57.5996 284.529 57.9461 283.929 58.4082C283.328 58.824 282.843 59.4016 282.473 60.1409C282.15 60.834 281.988 61.6889 281.988 62.7054C281.988 63.5833 282.242 64.3226 282.75 64.9233C283.259 65.524 283.859 66.0092 284.553 66.3788C285.292 66.7023 286.077 66.9333 286.909 67.0719C287.787 67.2105 288.572 67.2799 289.266 67.2799C290.144 67.2799 291.091 67.1643 292.107 66.9333C293.124 66.7023 294.071 66.3095 294.949 65.755C295.873 65.2006 296.636 64.5075 297.236 63.6757C297.837 62.7978 298.137 61.7351 298.137 60.4875V54.5961Z" fill="black"/>
<path d="M310.59 36.7142H319.253L328.61 63.4678H328.749L337.829 36.7142H346.076L332.145 74.4881C331.498 76.1053 330.851 77.6532 330.204 79.1318C329.604 80.6105 328.841 81.9042 327.917 83.0132C327.039 84.1684 325.93 85.0694 324.59 85.7163C323.25 86.4094 321.541 86.7559 319.461 86.7559C317.613 86.7559 315.788 86.6173 313.986 86.3401V79.6863C314.633 79.7787 315.257 79.8711 315.857 79.9636C316.458 80.1022 317.082 80.1715 317.729 80.1715C318.653 80.1715 319.415 80.056 320.016 79.8249C320.617 79.5939 321.102 79.2474 321.471 78.7853C321.887 78.3694 322.234 77.8612 322.511 77.2605C322.788 76.6598 323.042 75.9667 323.273 75.1812L324.175 72.4088L310.59 36.7142Z" fill="black"/>
<path d="M380.493 64.5768C380.493 65.5471 380.608 66.2402 380.839 66.6561C381.116 67.0719 381.625 67.2799 382.364 67.2799C382.595 67.2799 382.872 67.2799 383.196 67.2799C383.519 67.2799 383.889 67.2336 384.305 67.1412V72.6167C384.027 72.7091 383.658 72.8015 383.196 72.894C382.78 73.0326 382.341 73.1481 381.879 73.2405C381.417 73.3329 380.955 73.4022 380.493 73.4484C380.031 73.4946 379.638 73.5177 379.314 73.5177C377.697 73.5177 376.357 73.1943 375.294 72.5474C374.232 71.9005 373.538 70.7684 373.215 69.1512C371.644 70.676 369.703 71.785 367.393 72.4781C365.129 73.1712 362.934 73.5177 360.809 73.5177C359.191 73.5177 357.643 73.2867 356.165 72.8246C354.686 72.4088 353.369 71.785 352.214 70.9533C351.105 70.0753 350.204 68.9895 349.511 67.6957C348.864 66.3557 348.541 64.8078 348.541 63.0519C348.541 60.834 348.933 59.032 349.719 57.6458C350.551 56.2596 351.613 55.1737 352.907 54.3882C354.247 53.6027 355.726 53.0482 357.343 52.7248C359.006 52.3551 360.67 52.0779 362.333 51.8931C363.766 51.6158 365.129 51.431 366.423 51.3386C367.716 51.2 368.848 50.992 369.819 50.7148C370.835 50.4375 371.621 50.0217 372.175 49.4672C372.776 48.8665 373.076 47.9886 373.076 46.8334C373.076 45.8169 372.822 44.9852 372.314 44.3383C371.852 43.6914 371.251 43.2062 370.512 42.8828C369.819 42.5131 369.033 42.2821 368.155 42.1897C367.277 42.0511 366.446 41.9817 365.66 41.9817C363.442 41.9817 361.617 42.4438 360.185 43.3679C358.752 44.2921 357.944 45.7245 357.759 47.6652H349.858C349.996 45.3548 350.551 43.4373 351.521 41.9124C352.491 40.3876 353.716 39.1631 355.194 38.239C356.719 37.3149 358.429 36.668 360.323 36.2983C362.218 35.9287 364.159 35.7439 366.145 35.7439C367.901 35.7439 369.634 35.9287 371.344 36.2983C373.053 36.668 374.578 37.2687 375.918 38.1004C377.304 38.9321 378.413 40.018 379.245 41.358C380.077 42.6517 380.493 44.2459 380.493 46.1403V64.5768ZM372.591 54.5961C371.39 55.3817 369.911 55.8668 368.155 56.0517C366.4 56.1903 364.644 56.4213 362.888 56.7447C362.056 56.8834 361.248 57.0913 360.462 57.3685C359.676 57.5996 358.983 57.9461 358.383 58.4082C357.782 58.824 357.297 59.4016 356.927 60.1409C356.604 60.834 356.442 61.6889 356.442 62.7054C356.442 63.5833 356.696 64.3226 357.204 64.9233C357.713 65.524 358.313 66.0092 359.006 66.3788C359.746 66.7023 360.531 66.9333 361.363 67.0719C362.241 67.2105 363.026 67.2799 363.72 67.2799C364.597 67.2799 365.545 67.1643 366.561 66.9333C367.578 66.7023 368.525 66.3095 369.403 65.755C370.327 65.2006 371.09 64.5075 371.69 63.6757C372.291 62.7978 372.591 61.7351 372.591 60.4875V54.5961Z" fill="black"/>
<path d="M394.955 61.042C395.186 63.3523 396.064 64.9695 397.589 65.8937C399.114 66.8178 400.939 67.2799 403.064 67.2799C403.804 67.2799 404.635 67.2336 405.559 67.1412C406.53 67.0026 407.431 66.7716 408.263 66.4481C409.094 66.1247 409.764 65.6626 410.273 65.0619C410.827 64.415 411.081 63.5833 411.035 62.5668C410.989 61.5502 410.619 60.7185 409.926 60.0716C409.233 59.4247 408.332 58.9165 407.223 58.5468C406.16 58.1309 404.936 57.7844 403.549 57.5072C402.163 57.2299 400.754 56.9296 399.322 56.6061C397.843 56.2827 396.411 55.8899 395.024 55.4279C393.684 54.9658 392.46 54.342 391.351 53.5565C390.288 52.771 389.433 51.7775 388.786 50.5762C388.14 49.3286 387.816 47.8038 387.816 46.0017C387.816 44.061 388.278 42.4438 389.202 41.15C390.173 39.81 391.374 38.7473 392.806 37.9618C394.285 37.1301 395.902 36.5525 397.658 36.229C399.46 35.9056 401.17 35.7439 402.787 35.7439C404.635 35.7439 406.391 35.9518 408.055 36.3676C409.764 36.7373 411.289 37.3611 412.629 38.239C414.015 39.1169 415.147 40.2721 416.025 41.7045C416.949 43.0907 417.527 44.7772 417.758 46.7641H409.51C409.14 44.8697 408.263 43.599 406.876 42.9521C405.536 42.3052 403.988 41.9817 402.233 41.9817C401.678 41.9817 401.008 42.0279 400.223 42.1204C399.483 42.2128 398.767 42.3976 398.074 42.6748C397.427 42.9059 396.873 43.2755 396.411 43.7838C395.948 44.2459 395.717 44.8697 395.717 45.6552C395.717 46.6255 396.041 47.411 396.688 48.0117C397.381 48.6124 398.259 49.1207 399.322 49.5365C400.431 49.9062 401.678 50.2296 403.064 50.5069C404.45 50.7841 405.883 51.0844 407.362 51.4079C408.794 51.7313 410.203 52.1241 411.589 52.5862C412.976 53.0482 414.2 53.672 415.263 54.4575C416.372 55.243 417.25 56.2365 417.897 57.4378C418.59 58.6392 418.936 60.1178 418.936 61.8737C418.936 63.9992 418.451 65.8012 417.481 67.2799C416.51 68.7585 415.24 69.9598 413.669 70.884C412.144 71.8081 410.434 72.4781 408.54 72.894C406.645 73.3098 404.774 73.5177 402.926 73.5177C400.662 73.5177 398.559 73.2636 396.618 72.7553C394.724 72.2471 393.061 71.4847 391.628 70.4681C390.242 69.4054 389.133 68.1116 388.301 66.5867C387.516 65.0157 387.1 63.1675 387.054 61.042H394.955Z" fill="black"/>
<path d="M458.573 23.0601H467.791L486.851 72.5474H477.564L472.92 59.4478H453.167L448.523 72.5474H439.582L458.573 23.0601ZM455.523 52.8634H470.633L463.217 31.5853H463.009L455.523 52.8634Z" fill="url(#paint17_linear_2811_14)"/>
<path d="M491.564 23.0601H500.228V72.5474H491.564V23.0601Z" fill="url(#paint18_linear_2811_14)"/>
<defs>
<linearGradient id="paint0_linear_2811_14" x1="0.227539" y1="54.906" x2="500.228" y2="54.906" gradientUnits="userSpaceOnUse">
<stop stop-color="#5952E5"/>
<stop offset="1" stop-color="#312D7F"/>
</linearGradient>
<linearGradient id="paint1_linear_2811_14" x1="0.227539" y1="54.906" x2="500.228" y2="54.906" gradientUnits="userSpaceOnUse">
<stop stop-color="#5952E5"/>
<stop offset="1" stop-color="#312D7F"/>
</linearGradient>
<linearGradient id="paint2_linear_2811_14" x1="0.227539" y1="54.906" x2="500.228" y2="54.906" gradientUnits="userSpaceOnUse">
<stop stop-color="#5952E5"/>
<stop offset="1" stop-color="#312D7F"/>
</linearGradient>
<linearGradient id="paint3_linear_2811_14" x1="0.227539" y1="54.906" x2="500.228" y2="54.906" gradientUnits="userSpaceOnUse">
<stop stop-color="#5952E5"/>
<stop offset="1" stop-color="#312D7F"/>
</linearGradient>
<linearGradient id="paint4_linear_2811_14" x1="0.227539" y1="54.906" x2="500.228" y2="54.906" gradientUnits="userSpaceOnUse">
<stop stop-color="#5952E5"/>
<stop offset="1" stop-color="#312D7F"/>
</linearGradient>
<linearGradient id="paint5_linear_2811_14" x1="0.227539" y1="54.906" x2="500.228" y2="54.906" gradientUnits="userSpaceOnUse">
<stop stop-color="#5952E5"/>
<stop offset="1" stop-color="#312D7F"/>
</linearGradient>
<linearGradient id="paint6_linear_2811_14" x1="0.227539" y1="54.906" x2="500.228" y2="54.906" gradientUnits="userSpaceOnUse">
<stop stop-color="#5952E5"/>
<stop offset="1" stop-color="#312D7F"/>
</linearGradient>
<linearGradient id="paint7_linear_2811_14" x1="0.227539" y1="54.906" x2="500.228" y2="54.906" gradientUnits="userSpaceOnUse">
<stop stop-color="#5952E5"/>
<stop offset="1" stop-color="#312D7F"/>
</linearGradient>
<linearGradient id="paint8_linear_2811_14" x1="0.227539" y1="54.906" x2="500.228" y2="54.906" gradientUnits="userSpaceOnUse">
<stop stop-color="#5952E5"/>
<stop offset="1" stop-color="#312D7F"/>
</linearGradient>
<linearGradient id="paint9_linear_2811_14" x1="0.227539" y1="54.906" x2="500.228" y2="54.906" gradientUnits="userSpaceOnUse">
<stop stop-color="#5952E5"/>
<stop offset="1" stop-color="#312D7F"/>
</linearGradient>
<linearGradient id="paint10_linear_2811_14" x1="0.227539" y1="54.906" x2="500.228" y2="54.906" gradientUnits="userSpaceOnUse">
<stop stop-color="#5952E5"/>
<stop offset="1" stop-color="#312D7F"/>
</linearGradient>
<linearGradient id="paint11_linear_2811_14" x1="0.227539" y1="54.906" x2="500.228" y2="54.906" gradientUnits="userSpaceOnUse">
<stop stop-color="#5952E5"/>
<stop offset="1" stop-color="#312D7F"/>
</linearGradient>
<linearGradient id="paint12_linear_2811_14" x1="0.227539" y1="54.906" x2="500.228" y2="54.906" gradientUnits="userSpaceOnUse">
<stop stop-color="#5952E5"/>
<stop offset="1" stop-color="#312D7F"/>
</linearGradient>
<linearGradient id="paint13_linear_2811_14" x1="0.227539" y1="54.906" x2="500.228" y2="54.906" gradientUnits="userSpaceOnUse">
<stop stop-color="#5952E5"/>
<stop offset="1" stop-color="#312D7F"/>
</linearGradient>
<linearGradient id="paint14_linear_2811_14" x1="0.227539" y1="54.906" x2="500.228" y2="54.906" gradientUnits="userSpaceOnUse">
<stop stop-color="#5952E5"/>
<stop offset="1" stop-color="#312D7F"/>
</linearGradient>
<linearGradient id="paint15_linear_2811_14" x1="0.227539" y1="54.906" x2="500.228" y2="54.906" gradientUnits="userSpaceOnUse">
<stop stop-color="#5952E5"/>
<stop offset="1" stop-color="#312D7F"/>
</linearGradient>
<linearGradient id="paint16_linear_2811_14" x1="0.227539" y1="54.906" x2="500.228" y2="54.906" gradientUnits="userSpaceOnUse">
<stop stop-color="#5952E5"/>
<stop offset="1" stop-color="#312D7F"/>
</linearGradient>
<linearGradient id="paint17_linear_2811_14" x1="0.227539" y1="54.906" x2="500.228" y2="54.906" gradientUnits="userSpaceOnUse">
<stop stop-color="#5952E5"/>
<stop offset="1" stop-color="#312D7F"/>
</linearGradient>
<linearGradient id="paint18_linear_2811_14" x1="0.227539" y1="54.906" x2="500.228" y2="54.906" gradientUnits="userSpaceOnUse">
<stop stop-color="#5952E5"/>
<stop offset="1" stop-color="#312D7F"/>
</linearGradient>
</defs>
</svg>
